<svg width="18" height="18" viewBox="0 0 18 18" fill="none" xmlns="http://www.w3.org/2000/svg">
<rect width="18" height="18" rx="4" fill="#EFF2F5"/>
<g clip-path="url(#clip0)">
<path d="M4.94795 13.9364C4.70278 13.9507 4.46166 13.8692 4.27544 13.7091C3.90819 13.3397 3.90819 12.743 4.27544 12.3735L12.3172 4.33174C12.6992 3.9743 13.2986 3.99417 13.656 4.37615C13.9792 4.72158 13.9981 5.25251 13.7001 5.61995L5.61098 13.7091C5.42716 13.8669 5.18991 13.9482 4.94795 13.9364Z" fill="#A6B0C3"/>
<path d="M12.9805 13.9374C12.732 13.9363 12.4938 13.8377 12.3174 13.6627L4.27561 5.62086C3.93537 5.22353 3.98162 4.62557 4.37895 4.28529C4.73358 3.9816 5.25658 3.9816 5.61118 4.28529L13.7003 12.3271C14.0822 12.6846 14.102 13.284 13.7444 13.6659C13.7302 13.6811 13.7155 13.6958 13.7003 13.71C13.5023 13.8823 13.2416 13.9646 12.9805 13.9374Z" fill="#A6B0C3"/>
</g>
<defs>
<clipPath id="clip0">
<rect width="10" height="10" fill="white" transform="translate(4 4)"/>
</clipPath>
</defs>
</svg>
