<svg width="40" height="41" viewBox="0 0 40 41" fill="none" xmlns="http://www.w3.org/2000/svg">
<g clip-path="url(#clip0)">
<path d="M20 40.364C31.0457 40.364 40 31.3493 40 20.2292C40 9.10902 31.0457 0.0943604 20 0.0943604C8.9543 0.0943604 0 9.10902 0 20.2292C0 31.3493 8.9543 40.364 20 40.364Z" fill="#FFE14D"/>
<path d="M40 20.2292C40 9.12679 31.028 0.0943604 20 0.0943604V40.364C31.028 40.364 40 31.3316 40 20.2292Z" fill="#FFBB33"/>
<path d="M20 36.7678C11.1778 36.7678 4 29.1761 4 19.8452C4 10.5144 11.1778 2.92261 20 2.92261C28.8222 2.92261 36 10.5144 36 19.8452C36 29.1761 28.8222 36.7678 20 36.7678Z" fill="#FFBB33"/>
<path d="M36 19.8452C36 10.5144 28.8222 2.92261 20 2.92261V36.7678C28.8222 36.7678 36 29.1761 36 19.8452Z" fill="#E68A2E"/>
<path d="M15.339 18.085L20 13.424L24.6631 18.087L27.3751 15.375L20 8L12.6272 15.3728L15.3391 18.0848L15.339 18.085ZM8 20L10.7121 17.2875L13.424 19.9994L10.7119 22.7115L8 20ZM15.339 21.9153L20 26.576L24.663 21.9131L27.3765 24.6236L27.3751 24.6251L20 32L12.6272 24.6272L12.6233 24.6234L15.3393 21.915L15.339 21.9153ZM26.5759 20.0012L29.288 17.2891L31.9999 20.001L29.2879 22.7131L26.5759 20.0012Z" fill="#FFE14D"/>
<path d="M22.7505 19.9986H22.7517L19.9999 17.2466L17.966 19.28L17.7323 19.5138L17.2504 19.9958L17.2466 19.9996L17.2504 20.0035L19.9999 22.7535L22.7519 20.0015L22.7532 20L22.7507 19.9986" fill="#FFE14D"/>
</g>
<defs>
<clipPath id="clip0">
<rect width="40" height="40.2696" fill="white" transform="translate(0 0.0943604)"/>
</clipPath>
</defs>
</svg>
