<svg width="20" height="20" viewBox="0 0 20 20" fill="none" xmlns="http://www.w3.org/2000/svg">
<rect width="20" height="20" rx="10" fill="#FF5B5B"/>
<g clip-path="url(#clip0)">
<path d="M5.94795 14.9374C5.70278 14.9516 5.46166 14.8701 5.27544 14.71C4.90819 14.3406 4.90819 13.7439 5.27544 13.3745L13.3172 5.33265C13.6992 4.97522 14.2986 4.99509 14.656 5.37707C14.9792 5.7225 14.9981 6.25342 14.7001 6.62087L6.61098 14.71C6.42716 14.8678 6.18991 14.9491 5.94795 14.9374Z" fill="white"/>
<path d="M13.98 14.9374C13.7315 14.9363 13.4933 14.8377 13.3169 14.6627L5.27512 6.62086C4.93488 6.22353 4.98114 5.62557 5.37846 5.28529C5.73309 4.9816 6.25609 4.9816 6.61068 5.28529L14.6998 13.3271C15.0817 13.6846 15.1014 14.284 14.7439 14.6659C14.7297 14.6811 14.715 14.6958 14.6998 14.71C14.5017 14.8823 14.2411 14.9646 13.98 14.9374Z" fill="white"/>
</g>
<defs>
<clipPath id="clip0">
<rect width="10" height="10" fill="white" transform="translate(5 5)"/>
</clipPath>
</defs>
</svg>
