<svg width="30" height="30" viewBox="0 0 30 30" fill="none" xmlns="http://www.w3.org/2000/svg">
<g clip-path="url(#clip0)">
<path d="M1.46512 30.0001C1.17536 30.0001 0.892094 29.9142 0.651151 29.7533C0.410208 29.5923 0.222414 29.3635 0.111521 29.0958C0.00062749 28.8281 -0.0283818 28.5336 0.0281622 28.2494C0.0847061 27.9652 0.224263 27.7042 0.42918 27.4993L27.4995 0.428977C27.7742 0.15423 28.1469 -0.00012207 28.5354 -0.00012207C28.924 -0.00012207 29.2966 0.15423 29.5714 0.428977C29.8461 0.703725 30.0005 1.07636 30.0005 1.46491C30.0005 1.85347 29.8461 2.2261 29.5714 2.50085L2.50106 29.5712C2.36514 29.7074 2.20365 29.8154 2.02588 29.889C1.8481 29.9626 1.65753 30.0003 1.46512 30.0001Z" fill="#FF5B5B"/>
<path d="M28.5353 30.0001C28.3429 30.0003 28.1524 29.9626 27.9746 29.889C27.7968 29.8154 27.6353 29.7074 27.4994 29.5712L0.429099 2.50085C0.154352 2.2261 0 1.85347 0 1.46491C0 1.07636 0.154352 0.703725 0.429099 0.428977C0.703847 0.15423 1.07648 -0.00012207 1.46504 -0.00012207C1.85359 -0.00012207 2.22623 0.15423 2.50097 0.428977L29.5713 27.4993C29.7762 27.7042 29.9158 27.9652 29.9723 28.2494C30.0288 28.5336 29.9998 28.8281 29.8889 29.0958C29.7781 29.3635 29.5903 29.5923 29.3493 29.7533C29.1084 29.9142 28.8251 30.0001 28.5353 30.0001Z" fill="#FF5B5B"/>
</g>
<defs>
<clipPath id="clip0">
<rect width="30" height="30" fill="white"/>
</clipPath>
</defs>
</svg>
